<?xml version="1.0" encoding="utf-8"?>
<!-- Generator: Adobe Illustrator 23.0.5, SVG Export Plug-In . SVG Version: 6.00 Build 0)  -->
<svg version="1.1" id="Layer_1" xmlns="http://www.w3.org/2000/svg" xmlns:xlink="http://www.w3.org/1999/xlink" x="0px" y="0px"
	 viewBox="0 0 450 102.01" style="enable-background:new 0 0 450 102.01;" xml:space="preserve">
<style type="text/css">
	.st0{fill:none;}
</style>
<g>
	<path d="M246.21,19.58c-0.33,0-0.77,0.22-1.32,0.68c0.7,0.22,1.04,0.68,1.04,1.4c0,0.06,0,0.16,0,0.31l2.08-1.6
		C247.21,19.84,246.61,19.58,246.21,19.58L246.21,19.58z M251.08,19.31v8.29h-1.14v-6.1l-0.71-0.46l-3.89,3.13l-1.12-1.11
		c0.48-0.54,0.72-0.97,0.72-1.31c0-0.36-0.2-0.55-0.58-0.55c-0.26,0-0.61,0.12-1.04,0.36l-0.87-1.14c1.63-1.43,2.84-2.16,3.62-2.19
		c0.75-0.03,2.05,0.59,3.87,1.87v-3.27h0.81l0.24,1.4h1.47v1.1H251.08L251.08,19.31z"/>
	<path d="M249.94,28.76v-0.55c-0.85-0.36-1.55-0.54-2.09-0.54c-0.2,0-0.61,0.19-1.26,0.55c-0.64,0.37-1.09,0.55-1.33,0.54
		c-0.59-0.01-1.12-0.3-1.6-0.88c-0.45-0.54-0.69-1.1-0.69-1.65c0-0.17,0.16-0.7,0.48-1.59l1.5,0.99c-0.74,0.35-1.1,0.56-1.1,0.63
		c0,0.28,0.15,0.51,0.48,0.69c0.28,0.16,0.57,0.25,0.88,0.25c0.19,0,0.62-0.17,1.31-0.5c0.68-0.34,1.11-0.5,1.29-0.5
		c0.25,0,0.96,0.23,2.14,0.69v-0.43h1.07v2.29H249.94L249.94,28.76z"/>
	<path d="M262.16,18.31c-2.39-1.4-4.48-2.11-6.27-2.11c-0.45,0-0.99,0.18-1.64,0.55c-0.56,0.33-0.84,0.55-0.84,0.67
		c0,0.18,0.19,0.45,0.56,0.79h1.59l-0.33,1.1h-1.36v8.29h-1.13v-8.29h-1.09v-1.1h0.79c-0.29-0.42-0.43-0.74-0.43-0.95
		c0-0.44,0.48-0.98,1.44-1.59c0.95-0.62,1.71-0.93,2.28-0.93c1.43,0,3.68,0.98,6.76,2.96L262.16,18.31L262.16,18.31z"/>
	<path d="M262.72,25.59c-0.68,0.69-1.19,1.12-1.52,1.31c-0.21,0.13-0.49,0.19-0.83,0.19c-0.58,0-1.29-0.32-2.15-0.97
		c-1.48-1.13-2.64-2.78-3.48-4.96l0.81-0.25c0.34,0.68,0.57,1.15,0.71,1.39c0.32,0.59,0.59,1.01,0.83,1.28
		c1.1,1.23,2.15,1.84,3.15,1.84c0.57,0,1.25-0.32,2.03-0.96c0.71-0.57,1.05-0.99,1.05-1.25c0-0.31-0.63-0.81-1.9-1.49l-1.28,1.11
		l-1.63-1.57c1-0.94,1.8-1.4,2.41-1.4c0.5,0,1.17,0.43,2.01,1.28c0.84,0.86,1.26,1.53,1.26,2.01
		C264.2,23.76,263.71,24.58,262.72,25.59L262.72,25.59z M254.63,19.31v-1.1h10.08v1.1H254.63L254.63,19.31z"/>
	<path d="M268.3,19.31h-1.65l0.31,0.62l1.91,0.78C268.84,20.11,268.65,19.64,268.3,19.31L268.3,19.31z M269.82,20.86l0.27-0.12v0.3
		c0,0.87-0.36,1.57-1.08,2.08c-0.64,0.46-1.44,0.7-2.4,0.73c0.04,0.28,0.35,0.63,0.89,1.08c0.68,0.55,1.32,0.83,1.93,0.83
		c0.58,0,1.22-0.19,1.9-0.57c0.76-0.43,1.14-0.9,1.14-1.4C272.47,23.1,271.58,22.12,269.82,20.86L269.82,20.86z M266.85,20.92
		l-0.87,0.46c0.58,0.59,1.05,0.89,1.41,0.89c0.3,0,0.72-0.21,1.22-0.62L266.85,20.92L266.85,20.92z M270.23,19.31
		c0.66,0.61,1.3,1.3,1.94,2.1c0.84,1.05,1.27,1.82,1.27,2.33c0,0.52-0.42,1.23-1.25,2.14c-0.94,1.03-1.83,1.54-2.69,1.54
		c-1.17,0-2.76-1.5-4.72-4.51l1.13-0.13l-1.85-1.58c1.18-0.48,1.76-0.78,1.76-0.89c0-0.13-0.22-0.46-0.66-0.98h-1.07v-1.1h3.09
		c-0.41-0.61-0.61-1.04-0.61-1.29c0-0.39,0.44-0.98,1.3-1.79l2.07,0.91l-1.1,1.29c-0.33-0.47-0.59-0.71-0.8-0.71
		c-0.09,0-0.2,0.04-0.33,0.11c-0.14,0.08-0.21,0.15-0.21,0.23c0,0.41,0.54,0.82,1.62,1.25h4.83v1.1H270.23L270.23,19.31z"/>
	<polygon points="275.62,19.31 275.62,27.6 274.44,27.6 274.44,21.18 273.42,19.31 273.23,19.31 273.23,18.22 273.99,18.22 
		274.44,19.15 274.44,16.73 275.18,16.95 275.45,18.22 277,18.22 277,19.31 275.62,19.31 	"/>
	<path d="M284.44,25.59c-0.68,0.69-1.18,1.12-1.52,1.31c-0.21,0.13-0.49,0.19-0.83,0.19c-0.57,0-1.29-0.32-2.15-0.97
		c-1.48-1.13-2.63-2.78-3.47-4.96l0.81-0.25c0.34,0.68,0.57,1.15,0.71,1.39c0.32,0.59,0.6,1.01,0.84,1.28
		c1.1,1.23,2.14,1.84,3.15,1.84c0.57,0,1.25-0.32,2.02-0.96c0.71-0.57,1.06-0.99,1.06-1.25c0-0.31-0.63-0.81-1.9-1.49l-1.28,1.11
		l-1.63-1.57c1-0.94,1.8-1.4,2.41-1.4c0.5,0,1.17,0.43,2.01,1.28c0.85,0.86,1.26,1.53,1.26,2.01
		C285.92,23.76,285.43,24.58,284.44,25.59L284.44,25.59z M276.35,19.31v-1.1h10.08v1.1H276.35L276.35,19.31z"/>
	<polygon points="288.19,19.31 288.19,27.6 287.03,27.6 287.03,21.18 286.01,19.31 285.81,19.31 285.81,18.22 286.57,18.22 
		287.03,19.15 287.03,16.73 287.77,16.95 288.03,18.22 289.58,18.22 289.58,19.31 288.19,19.31 	"/>
	<path d="M300.56,25.59c-0.68,0.69-1.17,1.12-1.5,1.31c-0.22,0.13-0.5,0.19-0.84,0.19c-0.57,0-1.29-0.32-2.14-0.97
		c-1.49-1.13-2.65-2.78-3.49-4.96l0.82-0.25c0.34,0.68,0.58,1.15,0.7,1.39c0.32,0.59,0.6,1.01,0.84,1.28
		c1.09,1.23,2.15,1.84,3.15,1.84c0.57,0,1.25-0.32,2.02-0.96c0.71-0.57,1.05-0.99,1.05-1.25c0-0.31-0.62-0.81-1.88-1.49L298,22.81
		l-1.64-1.57c1.01-0.94,1.82-1.4,2.41-1.4c0.5,0,1.18,0.43,2.01,1.28c0.85,0.86,1.27,1.53,1.27,2.01
		C302.05,23.76,301.55,24.58,300.56,25.59L300.56,25.59z M292.48,19.31v-1.1h10.08v1.1H292.48L292.48,19.31z"/>
	<path d="M304.7,19.31c0.18,0.13,0.41,0.32,0.7,0.56c0.6,0.59,1.1,1.42,1.51,2.47l-2.39,1.58c1.26,0.09,2.5,0.71,3.71,1.87v-5.76
		c3.21,0.69,4.82,1.81,4.82,3.36c0,0.38-0.18,0.82-0.51,1.32c-0.36,0.54-0.72,0.82-1.1,0.82c-0.43,0-1.1-0.39-2-1.18l1.07-1.24
		l0.96,0.9c0.53-0.41,0.8-0.68,0.8-0.8c0-0.27-0.43-0.59-1.29-0.96c-0.58-0.25-1.12-0.42-1.65-0.54v5.9h-1.12v-0.52
		c-0.7-0.6-1.27-1-1.68-1.2c-0.62-0.31-1.3-0.46-2.06-0.46c-0.47,0-0.96,0.06-1.47,0.19l-0.8-1.59l3.25-2.22
		c-0.31-0.6-0.76-0.89-1.34-0.89c-0.24,0-0.47,0.21-0.68,0.63l-1.22-1.55l0.65-0.67h-0.94v-1.1h11.64v1.1H304.7L304.7,19.31z"/>
	<polygon points="315.29,19.31 315.29,27.6 314.11,27.6 314.11,21.18 313.1,19.31 312.9,19.31 312.9,18.22 313.65,18.22 
		314.11,19.15 314.11,16.73 314.86,16.95 315.12,18.22 316.67,18.22 316.67,19.31 315.29,19.31 	"/>
	<path d="M327.27,24.01c-0.62,0.47-1.07,0.71-1.34,0.71c-0.4,0-0.88-0.33-1.42-0.99c-0.49-0.58-0.73-1.01-0.73-1.27
		c0-0.38,0.45-1.02,1.37-1.92l-2.63-1.24c-1.86,0.77-2.79,1.42-2.79,1.95c0,0.07,0.1,0.16,0.29,0.26c0.18,0.1,0.33,0.15,0.43,0.15
		c0.32,0,0.81-0.44,1.46-1.31l1.44,2.61c0.83,2.19,1.7,3.28,2.58,3.28c0.32,0,0.64-0.27,0.97-0.8c0.3-0.48,0.45-0.88,0.45-1.22
		C327.35,24.19,327.32,24.12,327.27,24.01L327.27,24.01z M329.31,27.49c-0.06,0.02-0.09,0-0.09-0.07c-0.03-0.18-0.08-0.59-0.15-1.25
		c-0.1-0.92-0.16-1.51-0.16-1.77c0-0.3,0.24-0.94,0.72-1.9l-2.75-1.22c-1.49,0.49-2.22,0.88-2.22,1.16c0,0.14,0.15,0.28,0.46,0.44
		c0.31,0.16,0.54,0.24,0.7,0.24c0.31,0,0.82-0.38,1.54-1.15c0.66,1.24,0.98,2.01,0.98,2.33c0,0.37-0.29,1.03-0.86,1.97
		c-0.64,1.03-1.13,1.54-1.46,1.54c-0.59,0-1.62-1.24-3.07-3.72c-0.98,1.11-1.74,1.67-2.3,1.67c-1.02,0-2.54-1.92-4.57-5.75
		l0.77-0.14c1.37,2.79,2.61,4.19,3.76,4.19c0.27,0,0.59-0.13,0.99-0.38c0.38-0.25,0.58-0.49,0.58-0.72c0-0.12-0.07-0.34-0.21-0.65
		c-0.54,0.58-0.99,0.86-1.34,0.86c-0.33,0-0.73-0.28-1.18-0.85c-0.4-0.5-0.61-0.87-0.61-1.12c0-0.41,0.36-1.04,1.06-1.9h-3.87v-1.1
		h15.63v1.1h-6.3l5.3,2.33l0.51,1.08c-0.8,0.85-1.2,1.42-1.2,1.69c0,0.48,0.08,1.53,0.26,3.19h-0.79c-0.02,0-0.04,0-0.07,0
		c-0.04,0-0.07-0.03-0.11-0.08L329.31,27.49L329.31,27.49z"/>
	<path d="M339.47,19.31v8.29h-1.27v-5.3c-0.29-0.48-0.61-0.72-0.97-0.72c-0.74,0-1.28,0.54-1.61,1.63
		c-0.57-1.09-1.22-1.63-1.95-1.63c-0.38,0-0.73,0.15-1.04,0.45c-0.31,0.3-0.46,0.64-0.46,1c0,0.63,0.49,1.22,1.5,1.77l0.88-0.79
		l1.26,1.31c-0.8,0.73-1.35,1.09-1.67,1.09c-0.58,0-1.2-0.44-1.87-1.32c-0.63-0.84-0.95-1.55-0.95-2.13c0-0.54,0.22-1.16,0.67-1.86
		c0.5-0.78,1.01-1.17,1.55-1.17c0.52,0,1.16,0.38,1.9,1.16c0.58-0.77,1.11-1.16,1.57-1.16c0.24,0,0.63,0.26,1.17,0.77v-1.39h-7.19
		v-1.1h9.85v1.1H339.47L339.47,19.31z"/>
	<path d="M347.66,19.31l-1.84,3.02c-0.42,0.68-0.63,1.2-0.63,1.56c0,0.77,0.58,1.45,1.73,2.05l0.66-1.37l1.73,1.13
		c-0.74,1.3-1.5,1.93-2.29,1.91c-0.79-0.02-1.48-0.56-2.11-1.62c-0.5-0.85-0.75-1.56-0.75-2.12c0-0.83,0.75-2.71,2.25-5.64h3.28v1.1
		H347.66L347.66,19.31z"/>
	<path d="M357.43,26.9c-1.29-0.7-2.4-1.18-3.3-1.43c-1.35-0.39-2.83-0.6-4.43-0.63l-0.46-1.88c1.08,0.16,1.8,0.24,2.16,0.24
		c0.66,0,1.51-0.11,2.55-0.34c1.34-0.29,2.01-0.63,2.01-1.02c0-0.16-0.37-0.31-1.12-0.43c-0.57-0.09-1.02-0.14-1.35-0.14
		c-0.96,0-2,0.3-3.13,0.91l-0.78-1.46c1.6-0.65,2.78-0.97,3.53-0.97c0.79,0,1.56,0.16,2.34,0.49c0.97,0.41,1.44,0.95,1.44,1.6
		c0,0.68-0.79,1.43-2.4,2.27c0.91,0.29,2.16,0.95,3.74,1.95L357.43,26.9L357.43,26.9z M349.04,19.31v-1.1h9.5v1.1H349.04
		L349.04,19.31z"/>
	<polygon points="360.3,19.31 360.3,27.6 359.13,27.6 359.13,21.18 358.11,19.31 357.91,19.31 357.91,18.22 358.66,18.22 
		359.13,19.15 359.13,16.73 359.87,16.95 360.13,18.22 361.68,18.22 361.68,19.31 360.3,19.31 	"/>
	<path d="M364.9,19.31c-1.58,2.28-2.37,3.82-2.37,4.64c0,0.39,0.27,0.84,0.78,1.34c0.46,0.45,0.77,0.68,0.94,0.68
		c0.16,0,0.38-0.46,0.66-1.36l1.67,1.02c-0.53,1.33-1.31,1.99-2.31,1.97c-0.62-0.01-1.25-0.51-1.92-1.51
		c-0.59-0.88-0.89-1.61-0.89-2.19c0-0.87,0.57-2.4,1.73-4.59h-2.15v-1.1h5.93v1.1H364.9L364.9,19.31z"/>
	<path d="M373.44,19.31h-2.96c0.64,0.83,0.96,1.61,0.96,2.31c0.47-0.38,0.9-0.57,1.29-0.57c0.19,0,0.43,0.08,0.71,0.25V19.31
		L373.44,19.31z M374.6,19.31v8.29h-1.16v-5.02c-0.25-0.23-0.45-0.34-0.57-0.34c-0.24,0-0.58,0.26-1,0.77
		c-0.25,0.35-0.5,0.7-0.78,1.05c-0.69,0.89-1.38,1.34-2.09,1.34c-0.71,0-1.57-0.56-2.55-1.68l1.35-1.18
		c0.45,1.35,0.85,2.02,1.2,2.02c0.47,0,0.85-0.32,1.14-0.98c0.21-0.51,0.33-1.04,0.33-1.56c0-0.5-0.24-1.01-0.73-1.53
		c-0.42-0.45-0.79-0.68-1.08-0.68c-0.26,0-0.68,0.37-1.26,1.1l-0.36-1.61h-0.72v-1.1h9.67v1.1H374.6L374.6,19.31z"/>
	<path d="M383.17,19.31v8.29h-1.09v-1.06c-0.37-0.98-0.7-1.73-1.03-2.25c-0.35-0.57-0.78-1.06-1.28-1.46
		c-0.61-0.51-1.23-0.76-1.82-0.76c-0.34,0-0.67,0.1-1.01,0.3c-0.38,0.22-0.57,0.47-0.57,0.77c0,0.26,0.27,0.49,0.79,0.68l0.93-0.85
		l1.08,1.43c-0.75,0.72-1.33,1.08-1.74,1.08c-0.4,0-0.82-0.3-1.25-0.89c-0.41-0.56-0.61-1.03-0.61-1.43c0-0.44,0.29-0.99,0.85-1.64
		c0.56-0.65,1.06-0.98,1.47-0.98c0.65,0,1.35,0.26,2.1,0.79c0.62,0.45,1.14,0.98,1.56,1.58c0.17,0.26,0.34,0.62,0.52,1.07v-4.67
		h-6.74v-1.1h9.23v1.1H383.17L383.17,19.31z"/>
	<path d="M393.75,19.31h-3.42c0.86,0.54,1.27,1.12,1.27,1.72c0,0.31-0.11,0.85-0.34,1.62c0.82,0.32,1.42,0.69,1.81,1.12
		c0.23,0.26,0.46,0.6,0.68,1.03V19.31L393.75,19.31z M394.87,19.31v8.29h-1.07v-0.72c-0.25-0.51-0.44-0.88-0.56-1.09
		c-0.22-0.38-0.46-0.73-0.75-1.03c-0.57-0.65-1.25-0.98-2.07-1l-0.84,1.11l-1.96-1.11l1.3-1.89l1.32,0.48
		c0.41-0.62,0.63-1.04,0.63-1.25c0-0.33-0.83-0.57-2.49-0.74l-0.44-1.03h-0.46v-1.1h8.79v1.1H394.87L394.87,19.31z"/>
	<polygon points="398.02,19.31 398.02,27.6 396.84,27.6 396.84,21.18 395.82,19.31 395.62,19.31 395.62,18.22 396.38,18.22 
		396.84,19.15 396.84,16.73 397.58,16.95 397.85,18.22 399.39,18.22 399.39,19.31 398.02,19.31 	"/>
	<path d="M409.25,18.31c-2.39-1.4-4.48-2.11-6.27-2.11c-0.45,0-1,0.18-1.64,0.55c-0.55,0.33-0.84,0.55-0.84,0.67
		c0,0.18,0.19,0.45,0.56,0.79h1.6l-0.34,1.1h-1.36v8.29h-1.13v-8.29h-1.1v-1.1h0.79c-0.29-0.42-0.42-0.74-0.42-0.95
		c0-0.44,0.47-0.98,1.43-1.59c0.95-0.62,1.71-0.93,2.28-0.93c1.43,0,3.7,0.98,6.76,2.96L409.25,18.31L409.25,18.31z"/>
	<path d="M409.56,19.31v8.29h-1.09v-1.06c-0.36-0.98-0.7-1.73-1.02-2.25c-0.35-0.57-0.77-1.06-1.28-1.46
		c-0.63-0.51-1.24-0.76-1.83-0.76c-0.33,0-0.67,0.1-1,0.3c-0.38,0.22-0.58,0.47-0.58,0.77c0,0.26,0.27,0.49,0.8,0.68l0.92-0.85
		l1.1,1.43c-0.76,0.72-1.34,1.08-1.75,1.08c-0.38,0-0.81-0.3-1.25-0.89c-0.4-0.56-0.61-1.03-0.61-1.43c0-0.44,0.28-0.99,0.85-1.64
		c0.56-0.65,1.05-0.98,1.47-0.98c0.65,0,1.34,0.26,2.09,0.79c0.63,0.45,1.15,0.98,1.57,1.58c0.17,0.26,0.35,0.62,0.53,1.07v-4.67
		h-6.74v-1.1h9.22v1.1H409.56L409.56,19.31z"/>
	<path d="M416.7,21.73l-3.49,1.38c0.78,0.26,1.38,0.55,1.81,0.88c0.6,0.45,1.15,0.97,1.69,1.54V21.73L416.7,21.73z M417.87,19.31
		v0.63c0.85,0.35,1.63,0.76,2.33,1.26c0.99,0.7,1.49,1.32,1.49,1.88c0,0.92-0.61,1.78-1.82,2.58l-1.62-1.17l1.14-1.46l0.66,0.83
		c0.49-0.33,0.75-0.55,0.75-0.66c0-0.58-0.98-1.11-2.93-1.57v5.98h-1.17v-0.58c-0.93-0.96-1.76-1.61-2.49-1.97
		c-0.96-0.48-2.13-0.81-3.51-1.02l-0.21-1.53l6.2-2.57v-0.62h-6.39v-1.1h11.91v1.1H417.87L417.87,19.31z"/>
	<path d="M435.45,18.31c-2.39-1.4-4.48-2.11-6.26-2.11c-0.46,0-1,0.18-1.64,0.55c-0.57,0.33-0.85,0.55-0.85,0.67
		c0,0.18,0.2,0.45,0.56,0.79h1.6l-0.34,1.1h-1.35v8.29h-1.13v-8.29h-1.09v-1.1h0.79c-0.29-0.42-0.43-0.74-0.43-0.95
		c0-0.44,0.48-0.98,1.43-1.59c0.95-0.62,1.71-0.93,2.27-0.93c1.43,0,3.69,0.98,6.76,2.96L435.45,18.31L435.45,18.31z"/>
	<path d="M434.21,19.31h-3.42c0.86,0.54,1.28,1.12,1.28,1.72c0,0.31-0.12,0.85-0.35,1.62c0.83,0.32,1.42,0.69,1.81,1.12
		c0.23,0.26,0.45,0.6,0.68,1.03V19.31L434.21,19.31z M435.33,19.31v8.29h-1.08v-0.72c-0.25-0.51-0.44-0.88-0.56-1.09
		c-0.22-0.38-0.47-0.73-0.75-1.03c-0.57-0.65-1.26-0.98-2.07-1l-0.84,1.11l-1.95-1.11l1.29-1.89l1.31,0.48
		c0.42-0.62,0.64-1.04,0.64-1.25c0-0.33-0.83-0.57-2.49-0.74l-0.44-1.03h-0.47v-1.1h8.79v1.1H435.33L435.33,19.31z"/>
	<path d="M440.26,27.45l-1.32-0.87l1.32-0.95l1.24,0.99L440.26,27.45L440.26,27.45z M442.77,19.31h-4.4
		c0.93,0.54,1.85,1.5,2.79,2.86l-2.42,1.51c1.72,0.27,3.06,1,4.03,2.18V19.31L442.77,19.31z M443.83,19.31v8.29h-1.06V27
		c-0.62-0.67-1.41-1.21-2.39-1.62c-0.69-0.29-1.82-0.42-3.4-0.4l-0.73-1.45l2.98-1.71c-0.78-0.76-1.68-1.35-2.72-1.79l0.55-0.72
		h-0.97v-1.1h9.15v1.1H443.83L443.83,19.31z"/>
	<polygon points="446.99,19.31 446.99,27.6 445.82,27.6 445.82,21.18 444.79,19.31 444.6,19.31 444.6,18.22 445.35,18.22 
		445.82,19.15 445.82,16.73 446.55,16.95 446.81,18.22 448.37,18.22 448.37,19.31 446.99,19.31 	"/>
	<path d="M174.13,21.07l5.87,1.95v-4.46L174.13,21.07L174.13,21.07z M89.8,10.21c-0.09-1.66-0.73-2.77-1.95-3.9
		c-1.38-1.29-2.77-1.75-4.73-1.66l3.91-4.17c2.69,0.64,4.45,1.86,6.11,3.9c1.58,1.84,2.43,3.42,2.79,5.83h26.73
		c2.3-5.11,5.65-7.97,11.11-9.46c5.11-1.39,8.82-0.82,13.37,1.67v5.57c-3.34-2.51-6.51-3.16-10.58-2.22c-3.15,0.65-5,1.95-6.95,4.45
		h67.35v2.8h-9.45l10.57,5.83l-4.18,4.18l-7.51-3.89v9.18c-5.11-0.27-7.96-0.84-12.82-2.23c-5.92-1.77-9.26-3.34-14.45-6.69
		l18.92-6.39h-21.7v15.31h-5.85c0.83-3.8-8.17-10.21-9.75-6.12c-0.83,2.13-0.55,4.08,0.83,5.86h-6.67
		c-2.41-3.26-2.68-7.35-0.27-10.59c3.52-4.75,12.61-2.89,16.15,1.67v-6.12h-21.16v15.04h-6.95V13.01h-19.78v6.12l14.19-5.29
		l4.74,5.01c-2.22,1.21-3.24,3.26-3.07,5.85c0.1,1.39,0.58,2.31,1.39,3.35h-5.83c-1.01-1.5-1.58-2.61-1.68-4.47
		c-0.08-1.48,0.1-2.59,0.57-3.9l-8.34,4.73h-7.52V13.57c-2.42,0.84-3.44,1.19-4.73,4.72c-1.29,3.43,0.46,8.17,4.17,9.76H88.4
		c-1.94-2.06-2.85-3.82-3.06-6.7c-0.27-3.43,0.56-5.85,2.79-8.34H83.4v-2.8H89.8L89.8,10.21z"/>
	<path d="M253.2,53.07h12.28v8.85L253.2,53.07L253.2,53.07z M265.48,75.38l-6.41-2.32l6.41-6.4V75.38L265.48,75.38z M254.59,73.9
		l13.38,5.19l0.27,0.09V50.66h-21.17l16.71,13.77L254.59,73.9L254.59,73.9z"/>
	<path d="M25.69,68.81c2.33-0.99,4.58-2.04,8.45-2.99c2.33-0.55,8.82-1.67,12.53-2.03c1.86-0.18,5.01,1.21,2.69,2.03
		c-4.64,1.58-9.83,2.14-15.69,2.61C30.88,68.63,28.24,68.75,25.69,68.81L25.69,68.81z M340.38,50.66V96.8h-19.35V50.66h-30.99
		c5.38,1.96,8.35,4.04,13,7.37c5.36,3.9,8.15,6.87,11.95,12.25l-13.92,10.02c-1.39-2.03-2.6-3.42-4.45-5.01
		c-2.78-2.41-4.35-2.96-8.36-5.28v27.84c-10.85-0.84-17.07-1.1-27.55-3.62c-17.16-4.07-26.83-9.83-41.76-18.08l14.3-13.45
		l-14.55-12.02h-14.77c3.81,2.04,6.2,5.15,6.67,9.79c0.38,3.8-0.46,6.49-2.76,9.46c2.96,4.08,4.98,7.23,3.61,12.52
		c-3.07,11.41-21.34,14.38-27.75,14.93c-5.94,0.57-20.52-1.75-32.47-8.9c-8.55-5.1-18.94-14.38-26.37-21.9l16.53-8.63
		c4.72,4.65,7.16,7.52,12.44,11.14c8.17,5.67,13.36,8.63,23.66,10.39c2.79,0.46,9.01,1.48,11.7-2.03c2.21-2.98-5.38-5.3-8.35-6.13
		c3.04-3.34,8.35-2.87,7.77-6.95c-0.64-4.65-7.59-3.16-11.96-1.11c-3.61,1.67-5.84,3.43-9.18,5.57l-14.19-11.99l8.61-6.16h-24.21
		c-7.9,3.07-10.31,4.04-13.73,6.26c-10.39,6.87-15.59,16.42-10.76,20.41c3.06,2.5,6.68,4.45,12.8,4.83l-15.96,15.86
		c-7.8-4.17-5.94-3.52-7.61-4.55c-1.95-1.21-10.2-9.09-10.2-19.02c0-11.59,3.8-15.52,11.31-23.79H70.89
		c2.13,1.13,3.71,1.71,5.29,3.46c3.53,3.81,5.75,9.01,3.79,13.1c-2.13,4.53-5.92,6.87-9.83,9.47l17.16,8.35L73.85,98.67
		c-1.94-0.38-6.59-3.06-10.75-4.54c-3.9-1.39-6.5-2.23-10.68-3.25c-3.52-0.84-6.21-0.64-9.74-1.11c-2.97-0.37-4.92-0.1-7.98-0.1
		c-1.95,0-3.16,0.57-5.58,0.84c-2.04,0.27-3.42,0.64-5.57,1.11L1.95,70.37c3.26,0.18,7.52,0.46,10.58,0.74
		c2.33,0.18,4.64,0.27,6.31,0.46c1.66,0.17,2.78,0,4.64,0c1.57,0,2.14-0.09,3.99,0c1.77,0.09,12.62-1.12,14.21-1.4
		c6.12-1.21,9.55-1.48,12.79-4.63c1.68-1.68-1.3-2.97-7.23-4.09c-0.85-0.19-6.96,0.28-11.42,1.02c-2.6,0.45-5.1,1.48-8.07,2.5
		c-2.78,1.02-4.45,1.76-7.05,2.96L9.65,54.5l7.33-3.85H4.18V37.31h18.18L10.2,31.96l10.22-13.55c2.32,0.94,3.97,1.58,6.48,2.13
		c3.9,0.93,6.31,1.31,10.4,1.31c3.53,0,5.66-0.47,9.08-0.84c4.83-0.55,7.7-1.21,12.45-2.41l13.25,18.71h373.53v13.35h-20.3
		c5.66,1.86,8.81,4.12,13.35,8.02c3.62,3.06,5.56,5.38,7.96,9.46l-13.71,10.03c-1.1-1.95-2.14-3.15-3.63-4.83
		c-3.15-3.52-5.67-5.47-9.92-7.52v30.92c-16.25-1.31-25.71-4.75-40.54-11.63c-13.73-6.4-20.98-11.4-32.67-21.5l40.1-12.94H340.38
		L340.38,50.66z M318.07,53.07v16.18c-1.88-2.65-3.45-4.56-5.94-7.05c-4.27-4.27-4.27-5.23-9.55-9.13H318.07L318.07,53.07z
		 M217.58,53.07l11.7,9.69l-14.69,13.85c-0.61-2.35-1.91-4.59-3.39-6.97c2.12-3.08,2.78-5.67,2.49-9.48
		c-0.28-3.15-1.19-4.67-3.07-7.08H217.58L217.58,53.07z M97.79,53.07c-5.47,5.84-9.46,13.04-8.72,22.5c0.23,3.1,1.04,5.88,2.11,8.37
		l-15.11-7.82c0.76-0.93,1.58-1.5,2.33-2.31c2.04-2.24,3.43-4,4.45-6.98c0.75-2.12,0.75-4.16,0.1-6.39
		c-0.94-3.44-1.94-5.15-4.47-7.38H97.79L97.79,53.07z M154.67,53.07l-5.57,3.2l18.66,15.59c3.15-2.33,6.31-4,8.9-5.58
		c2.98-1.85,8.07-4.36,8.92-1.67c0.73,2.42-8.54,3.99-9.75,7.14c1.13,2.52,11.42,2.24,10.3,5.13c-0.74,1.93-14.37-0.57-21.7-4.47
		c-8.36-4.45-15.04-9.55-22.28-18.09l-21.52,12.07c10.11,10.09,17.44,16.97,24.5,21.41c8.26,5.21,15.77,10.87,33.31,12.07
		c9.47,0.66,33.41-2.12,36.37-18.28c0.33-1.73,0.22-3.3-0.16-4.84c11.17,6.91,18.76,11.82,31.9,16.34
		c16.6,5.77,26.98,7.06,44.53,7.53V74.74c1.4,0.83,2.13,1.47,3.34,2.49c2.52,2.14,3.99,3.9,5.56,6.67l18.11-12.32v27.92h25.09V53.07
		h25.65l-25,8.02v3.33c4.26,6.78,18.96,16.85,33.05,23.52c16.44,7.79,27.29,10.54,45.58,11.56V70.92c2.14,1.58,3.53,2.89,5.19,4.93
		c1.86,2.23,3.35,3.33,4.26,6.21L450,68.5c-1.4-3.05-2.41-4.53-4.74-7.51c-2.49-3.24-5.2-5.6-9.28-7.92h12.54V34.79H73.68
		L59.84,14.52c-5.29,2.21-10.2,3.24-14.47,4.08c-3.43,0.75-5.75,0.75-9.47,0.56c-3.61-0.19-5.83-0.56-9.27-1.58
		c-2.78-0.84-4.37-1.58-6.96-2.97L6.58,32.7l2.89,2.09H1.03v18.28h7.32l-2.6,1.25l11.92,14.42C11.85,68.53,6.23,67.92,0,67.03v4.83
		l22.18,22.72c8.54-2.13,10.49-2.04,16.43-2.21c4.92-0.2,9.83,0.17,14.48,1.38c7.52,1.95,9.83,3.15,21.34,8.26l17.1-17.37
		c3.29,7.05,8.68,11.24,8.68,11.24c1.58,1.02,2.33,2.23,10.22,5.94l21.34-21.99c-6.22-0.46-11.88-0.19-16.52-3.98
		c-3.52-2.88,1.67-9.57,5.2-12.54c6.21-5.29,10.95-7.73,17.53-10.24H154.67L154.67,53.07z"/>
	<rect class="st0" width="450" height="101.63"/>
	<path d="M397.76,68.72v2.94L393.3,70L397.76,68.72L397.76,68.72z M393.21,73.42c2.31,0.94,6.81,1.97,6.81,1.97v-10.3l-14.97,4.83
		C388.12,71.29,389.86,72.13,393.21,73.42L393.21,73.42z"/>
	<path d="M402.53,78.62c0,0-6.88-1.3-12.62-3.9c-4.33-1.96-7.37-3.14-11.54-5.38l24.17-8.06V78.62L402.53,78.62z M401.75,48.03v1.65
		L351,64.43c11.87,8.36,22.25,15.12,30.34,18.94c8.26,3.9,21.1,9.01,35.48,10.02V62.2c4.74,1.49,7.38,3.07,11.28,6.13
		c2.49,1.94,3.88,3.34,5.83,5.85l9.18-6.4c-2.38-3.71-4.62-6.4-7.78-8.63c-6.48-4.63-11.07-6.67-18.51-8.63v-2.48h26.29v-8.42H69.68
		L57.61,21.75c-4.27,0.84-6.86,1.4-11.23,1.95c-3.33,0.37-5.28,0.93-8.72,0.93c-4.27,0-6.68-0.45-10.76-1.48
		c-2.22-0.56-3.43-1.03-5.57-1.87l-6.49,9.47c2.58,1.3,4.17,2.13,6.96,2.97c2.51,0.74,4.08,1.21,6.68,1.67
		c2.68,0.48,4.54,0.66,7.23,0.84c3.81,0.18,6.22,0.55,9.93,0.1c1.77-0.2,4.54-0.28,6.22-1.22l3.16,4.5H6.22v8.42H37.2
		c-3.33,0.66-6.48,0.63-10.48,1.46c-2.7,0.55-4.64,1.5-7.05,2.51c-2.41,1.02-3.54,1.85-6.22,3.24l8.17,9.37
		c3.25-1.48,5.47-2.12,8.9-3.33c3.81-1.29,6.22-1.58,10.03-2.04c5.2-0.65,19.11,0.28,16.98,6.03c-1.76,4.83-9,6.02-14.29,7.06
		c-8.63,1.66-12.43,1.95-20.5,1.95c-4.56,0-10.3-0.28-14.66-1.3l16.04,15.87c4.73-0.85,7.52-1.38,13.27-1.58
		c5.29-0.19,8.26,0,13.36,0.94c5.48,1.02,6.59,1.21,11.14,2.59c2.6,0.84,9.47,3.54,11.69,4.74l9.46-9.47l-19.1-9.46
		c4.09-1.84,11.97-5.29,13.91-12.52c1.02-3.79-4.64-9.65-9.19-11.78c-5.29-2.5-13.27-3.22-16.79-4.25h59.37
		c-8.62,7.89-16.14,13.34-16.23,26.79c-0.08,7.8,6.77,14.39,8.91,16.14c1.95,1.67,0.83,1.1,5.28,3.62l10.29-10.3
		c-5.92-2.41-9-4.83-9.73-6.39c-2.78-5.86-0.93-12.27,9.18-20.89c4.54-3.88,10.4-6.28,18.09-8.97h43.81
		c-5.67,0.83-11.69,1.92-15.59,4.06c-3.25,1.76-4.92,2.87-7.53,5.01l9.75,8.35c2.89-2.32,6.04-3.61,9.18-5.29
		c4.37-2.31,14.39-1.75,14.75,4.19c0.19,3.06-1.94,4.46-5,6.11c2.95,1.5,6.59,3.53,6.11,6.13c-1.67,9.74-19.2,5.85-29.22,1.39
		c-10.02-4.44-14.86-9.55-23.02-16.98l-10.67,6.13c9.28,9.57,19.76,17.07,27,20.59c2.51,1.2,10.78,7.61,28.96,6.41
		c4.35-0.28,20.78-3.62,22.82-12.53c0.83-3.51-0.27-7.61-4.45-11.96c3.52-4.92,4.91-6.7,3.15-11.23
		c-3.15-8.17-10.21-8.6-15.85-10.37h28.77l17.52,14.55l-13.45,12.99c11.23,6.86,18.29,10.29,31.08,13.91
		c11.59,3.25,18.09,4.55,29.69,5.1v-28.3c4.36,1.01,6.95,2.15,10.67,4.64c2.59,1.67,4,2.97,6.03,5.29l9.84-6.4
		c-3.54-4.54-6.71-7.32-11.25-10.02c-12.89-7.7-18.07-9.23-23.83-9.13h-4.92V82.8l-22.74-7.7l11.21-10.29l-21.51-16.77h85.08V94.5
		h14.46V48.03H401.75L401.75,48.03z"/>
</g>
</svg>
